HIERARCHY
ROOT Hips
{
 OFFSET 0.000000 0.000000 0.000000
 CHANNELS 6 Xposition Yposition Zposition Yrotation Xrotation Zrotation
 JOINT Chest
 {
  OFFSET 0.000000 9.585900 0.002600
  CHANNELS 3 Yrotation Xrotation Zrotation
  JOINT Chest2
  {
   OFFSET 0.000000 9.601200 -0.005300
   CHANNELS 3 Yrotation Xrotation Zrotation
   JOINT Chest3
   {
    OFFSET 0.000000 9.561800 0.000000
    CHANNELS 3 Yrotation Xrotation Zrotation
    JOINT Chest4
    {
     OFFSET 0.000000 9.552100 0.000000
     CHANNELS 3 Yrotation Xrotation Zrotation
     JOINT Neck
     {
      OFFSET 0.000000 14.453000 0.000000
      CHANNELS 3 Yrotation Xrotation Zrotation
      JOINT Head
      {
       OFFSET 0.000000 8.936500 -0.011300
       CHANNELS 3 Yrotation Xrotation Zrotation
       End Site
       {
        OFFSET 0.000000 17.073600 -0.006000
       }
      }
     }
     JOINT RightCollar
     {
      OFFSET -2.921100 9.558500 0.000000
      CHANNELS 3 Yrotation Xrotation Zrotation
      JOINT RightShoulder
      {
       OFFSET -13.519700 0.000000 0.000000
       CHANNELS 3 Yrotation Xrotation Zrotation
       JOINT RightElbow
       {
        OFFSET 0.000000 -29.696600 0.000000
        CHANNELS 3 Yrotation Xrotation Zrotation
        JOINT RightWrist
        {
         OFFSET 0.000000 -24.004700 0.000000
         CHANNELS 3 Yrotation Xrotation Zrotation
         End Site
         {
          OFFSET 0.000000 -17.728500 0.000000
         }
        }
       }
      }
     }
     JOINT LeftCollar
     {
      OFFSET 2.921100 9.558500 0.000000
      CHANNELS 3 Yrotation Xrotation Zrotation
      JOINT LeftShoulder
      {
       OFFSET 13.519700 0.000000 0.000000
       CHANNELS 3 Yrotation Xrotation Zrotation
       JOINT LeftElbow
       {
        OFFSET 0.000000 -29.696600 0.000000
        CHANNELS 3 Yrotation Xrotation Zrotation
        JOINT LeftWrist
        {
         OFFSET 0.000000 -24.004700 0.000000
         CHANNELS 3 Yrotation Xrotation Zrotation
         End Site
         {
          OFFSET 0.000000 -17.728500 0.000000
         }
        }
       }
      }
     }
    }
   }
  }
 }
 JOINT RightHip
 {
  OFFSET -7.771700 -0.012900 -0.001300
  CHANNELS 3 Yrotation Xrotation Zrotation
  JOINT RightKnee
  {
   OFFSET 0.000000 -40.869800 0.001200
   CHANNELS 3 Yrotation Xrotation Zrotation
   JOINT RightAnkle
   {
    OFFSET 0.000000 -39.717900 0.002100
    CHANNELS 3 Yrotation Xrotation Zrotation
    JOINT RightToe
    {
     OFFSET 0.000000 -4.965400 11.033500
     CHANNELS 3 Yrotation Xrotation Zrotation
     End Site
     {
      OFFSET 0.000000 -1.423100 5.872300
     }
    }
   }
  }
 }
 JOINT LeftHip
 {
  OFFSET 7.771700 -0.012900 -0.001300
  CHANNELS 3 Yrotation Xrotation Zrotation
  JOINT LeftKnee
  {
   OFFSET 0.000000 -40.869800 0.001200
   CHANNELS 3 Yrotation Xrotation Zrotation
   JOINT LeftAnkle
   {
    OFFSET 0.000000 -39.717900 0.002100
    CHANNELS 3 Yrotation Xrotation Zrotation
    JOINT LeftToe
    {
     OFFSET 0.000000 -4.965400 11.033500
     CHANNELS 3 Yrotation Xrotation Zrotation
     End Site
     {
      OFFSET 0.000000 -1.423100 5.872300
     }
    }
   }
  }
 }
}
MOTION
Frames: 12
Frame Time: 0.008333
0.000000 85.388000 0.000000 0.000000 -5.767877 0.000000 0.000000 11.653817 0.000000 0.000000 -5.885947 0.000000 0.000000 -0.000000 0.000000 0.000000 -0.000000 0.000000 0.000000 12.528835 0.000000 0.000000 0.711642 0.000000 0.000000 -0.000000 0.000000 0.000000 0.000000 -90.000000 0.000000 -2.309062 0.000000 0.000000 2.309062 0.000000 0.000000 -0.000000 0.000000 0.000000 -0.000000 90.000000 0.000000 -2.309062 0.000000 0.000000 2.309062 0.000000 0.000000 8.520406 0.000000 0.000000 1.905762 0.000000 -0.000000 -4.658285 0.000000 0.000000 -0.000000 0.000000 0.000000 8.520406 0.000000 0.000000 1.905762 0.000000 -0.000000 -4.658285 0.000000 0.000000 -0.000000 0.000000
-28.361708 60.947697 25.253671 159.314363 -13.027039 1.442787 3.848631 11.208717 0.072344 0.293189 0.800714 0.008913 0.494323 1.378388 0.033256 3.752556 10.230368 0.496908 3.200928 16.928433 -0.151948 3.414765 -7.890249 -0.889360 3.655198 3.640081 -3.326880 -3.234636 -10.772814 -4.248985 -45.656397 -79.599754 60.735484 -1.030181 5.059487 -34.866717 -6.254737 -0.431666 -4.860579 16.438315 -3.447914 3.346751 11.069253 -79.539298 -26.600825 -5.931900 5.927153 7.293680 -0.780855 -56.096841 1.200500 -17.499499 72.159757 -12.250022 1.851895 -5.250348 -3.348227 0.096781 -0.441170 0.038220 16.899423 -54.299056 -1.816074 30.464974 70.320352 28.399283 -18.261439 -14.450819 2.180017 0.372920 0.463139 0.080217
-28.360836 60.948735 25.258169 159.339424 -13.016436 1.447569 3.821109 11.202568 0.066113 0.291763 0.798627 0.009394 0.494151 1.379828 0.033191 3.746433 10.229937 0.498417 3.200794 16.929297 -0.152921 3.417314 -7.892040 -0.896036 3.681049 3.635473 -3.321021 -3.220562 -10.802595 -4.268099 -45.519228 -79.588119 60.542569 -1.040238 5.075890 -34.892962 -6.267176 -0.458803 -4.879443 16.438423 -3.463810 3.363865 11.213784 -79.447838 -26.649835 -5.849027 5.983880 7.455063 -0.812224 -56.109219 1.197045 -17.503228 72.163310 -12.257781 1.856895 -5.247649 -3.351029 0.097687 -0.445018 0.037353 16.897726 -54.306884 -1.836785 30.521264 70.288964 28.445609 -18.339459 -14.396849 2.215224 0.380438 0.463426 0.078198
-28.363125 60.950062 25.263506 159.358356 -12.996074 1.473372 3.798259 11.187597 0.038442 0.286443 0.799630 0.010541 0.498951 1.379508 0.034117 3.740466 10.228249 0.500646 3.199318 16.932369 -0.151009 3.420404 -7.894571 -0.905990 3.690485 3.633085 -3.325763 -3.186463 -10.833529 -4.276723 -45.398976 -79.569524 60.375032 -1.053735 5.109842 -35.005611 -6.280375 -0.481469 -4.898461 16.435117 -3.481153 3.380210 11.250130 -79.396734 -26.642138 -5.754699 6.071633 7.630259 -0.831691 -56.129972 1.169210 -17.451874 72.165105 -12.221034 1.867791 -5.249404 -3.352386 0.090352 -0.439886 0.032794 16.932263 -54.318748 -1.891499 30.563399 70.259370 28.479204 -18.473627 -14.325467 2.269635 0.351256 0.452084 0.060783
-28.358912 60.952709 25.267478 159.374984 -12.998696 1.468882 3.783257 11.191022 0.040960 0.289126 0.802903 0.014945 0.497243 1.381451 0.035285 3.735452 10.224580 0.500966 3.197098 16.938848 -0.142983 3.416156 -7.894072 -0.907086 3.713965 3.630004 -3.320391 -3.172832 -10.845926 -4.288268 -45.335485 -79.572614 60.246486 -1.077316 5.146105 -35.077615 -6.288344 -0.495725 -4.912882 16.408978 -3.526909 3.393073 11.373914 -79.276379 -26.652598 -5.735395 6.108434 7.720312 -0.876455 -56.123289 1.180905 -17.416096 72.166658 -12.176825 1.867092 -5.247654 -3.366500 0.098173 -0.443173 0.030138 16.923883 -54.314761 -1.889162 30.580559 70.237970 28.492904 -18.548833 -14.283554 2.290046 0.386213 0.459466 0.077692
-28.355811 60.956081 25.270272 159.372074 -13.005975 1.479085 3.788440 11.206527 0.038850 0.288407 0.811741 0.021606 0.494050 1.369201 0.025852 3.730162 10.229864 0.507911 3.195400 16.943322 -0.136002 3.414311 -7.895394 -0.905457 3.747483 3.624522 -3.315748 -3.164546 -10.853761 -4.298578 -45.284042 -79.574405 60.118901 -1.093069 5.164968 -35.100033 -6.286933 -0.508826 -4.925323 16.371236 -3.569791 3.400881 11.437932 -79.176676 -26.604730 -5.730651 6.132307 7.777189 -0.895262 -56.109869 1.183872 -17.376433 72.161513 -12.141352 1.871629 -5.250743 -3.374305 0.098601 -0.437542 0.028452 16.944190 -54.304551 -1.899160 30.564410 70.231406 28.479566 -18.638147 -14.233816 2.340286 0.334348 0.455104 0.058512
-28.360645 60.958964 25.275090 159.385605 -12.985320 1.526348 3.766648 11.198259 -0.007231 0.286428 0.811637 0.021184 0.494884 1.364861 0.023507 3.722974 10.238559 0.515577 3.194244 16.946224 -0.129924 3.412199 -7.892131 -0.897675 3.764756 3.622578 -3.325865 -3.139913 -10.861989 -4.293686 -45.263987 -79.581469 60.048994 -1.106164 5.172394 -35.134224 -6.295153 -0.528842 -4.937549 16.342656 -3.606159 3.412662 11.444906 -79.105212 -26.516104 -5.730030 6.130756 7.778367 -0.863825 -56.126941 1.110489 -17.351711 72.156009 -12.119624 1.862150 -5.268747 -3.384134 0.114023 -0.417600 0.033160 17.015807 -54.308002 -1.980901 30.574227 70.202907 28.489440 -18.857221 -14.159203 2.413957 0.238772 0.445093 0.019618
-28.356929 60.962054 25.281884 159.403715 -12.971264 1.520185 3.747483 11.192401 -0.001193 0.289576 0.812878 0.021800 0.490552 1.363960 0.023340 3.720556 10.237889 0.514273 3.194514 16.946644 -0.126646 3.398122 -7.862940 -0.849726 3.780199 3.632485 -3.329379 -3.127084 -10.873687 -4.288818 -45.296174 -79.587458 60.034594 -1.108072 5.170832 -35.146105 -6.305139 -0.535707 -4.946097 16.287172 -3.653824 3.438992 11.407044 -79.050830 -26.353096 -5.704418 6.134982 7.761779 -0.913987 -56.133828 1.133553 -17.324312 72.147396 -12.097479 1.870456 -5.270230 -3.384110 0.106215 -0.413810 0.028239 17.008190 -54.320570 -1.984884 30.622613 70.170587 28.530780 -18.885046 -14.121131 2.436450 0.255994 0.453454 0.020488
-28.348478 60.965146 25.289672 159.421398 -12.960681 1.484173 3.743676 11.200118 0.043454 0.286945 0.803196 0.015892 0.491368 1.374854 0.029548 3.711684 10.219389 0.502556 3.193082 16.952304 -0.118597 3.398701 -7.865062 -0.852122 3.786527 3.641756 -3.330453 -3.125292 -10.882856 -4.286604 -45.357013 -79.587964 60.074777 -1.100341 5.162120 -35.151612 -6.309107 -0.538193 -4.948029 16.266284 -3.665875 3.455738 11.465112 -79.037707 -26.381833 -5.782474 6.146693 7.791677 -1.007237 -56.135453 1.209406 -17.294130 72.137255 -12.070533 1.888326 -5.260947 -3.382815 0.090284 -0.419552 0.017245 16.961959 -54.337367 -1.948987 30.698930 70.138245 28.591274 -18.766935 -14.112342 2.437947 0.339014 0.474060 0.040907
-28.341997 60.967746 25.298196 159.458989 -12.940792 1.450928 3.716409 11.185885 0.071593 0.288425 0.806291 0.016825 0.491030 1.375942 0.029789 3.707590 10.221632 0.504741 3.186692 16.958891 -0.105892 3.389136 -7.858431 -0.837396 3.785460 3.632043 -3.338413 -3.111958 -10.874156 -4.274433 -45.436517 -79.602707 60.135441 -1.084996 5.147760 -35.150324 -6.317661 -0.550866 -4.953122 16.261411 -3.673019 3.463029 11.185186 -79.103296 -26.087271 -5.768884 6.159642 7.738765 -1.112763 -56.147458 1.264491 -17.274615 72.132135 -12.033127 1.897195 -5.254878 -3.410834 0.097686 -0.427033 0.018240 16.907858 -54.360649 -1.926759 30.834856 70.085339 28.710565 -18.704443 -14.103931 2.438644 0.402543 0.498765 0.060625
-28.339156 60.970694 25.302550 159.472908 -12.934718 1.449060 3.709386 11.190084 0.074352 0.288128 0.806895 0.016985 0.490555 1.377008 0.030126 3.704851 10.227376 0.506690 3.181238 16.966013 -0.090882 3.359610 -7.819197 -0.774000 3.784724 3.631486 -3.345542 -3.107567 -10.877613 -4.263118 -45.543820 -79.623723 60.227759 -1.072016 5.136294 -35.132434 -6.327244 -0.560266 -4.946888 16.258087 -3.682823 3.458870 11.007990 -79.172794 -25.924362 -5.782239 6.167847 7.673525 -1.151862 -56.148477 1.275448 -17.240258 72.129324 -11.998269 1.901384 -5.254204 -3.421226 0.094767 -0.429131 0.020011 16.899109 -54.362819 -1.924536 30.861416 70.062739 28.728482 -18.696386 -14.090917 2.455564 0.408236 0.512843 0.067700
-28.339954 60.973303 25.305432 159.481981 -12.927001 1.468178 3.706609 11.198035 0.058094 0.286131 0.804776 0.016351 0.490057 1.377663 0.030446 3.697529 10.231281 0.509074 3.170660 16.998155 -0.051325 3.353899 -7.833787 -0.781319 3.782200 3.640464 -3.353576 -3.110703 -10.888720 -4.247717 -45.782731 -79.658733 60.466078 -1.060773 5.166060 -35.124806 -6.329212 -0.558296 -4.940006 16.246756 -3.700862 3.478529 11.050250 -79.226748 -25.991610 -5.816989 6.160532 7.587247 -1.139057 -56.154811 1.242080 -17.224341 72.128301 -11.983069 1.897562 -5.257087 -3.426106 0.095014 -0.429199 0.029653 16.922145 -54.363161 -1.957178 30.874288 70.047505 28.739534 -18.728867 -14.068271 2.482626 0.365872 0.514955 0.060901
